<svg width="438" height="800" viewBox="0 0 438 800" fill="none" xmlns="http://www.w3.org/2000/svg">
<g clip-path="url(#clip0_23_3)">
<rect width="438" height="800" fill="#181686"/>
<path d="M70 140.5C70 178.884 38.6599 210 0 210C-38.6599 210 -70 178.884 -70 140.5C-70 102.116 -38.6599 71 0 71C38.6599 71 70 102.116 70 140.5ZM-61.1541 140.5C-61.1541 174.033 -33.7745 201.217 0 201.217C33.7745 201.217 61.1541 174.033 61.1541 140.5C61.1541 106.967 33.7745 79.7827 0 79.7827C-33.7745 79.7827 -61.1541 106.967 -61.1541 140.5Z" fill="#712AE4"/>
<ellipse cx="94.5" cy="565" rx="20.5" ry="20" fill="#D21E9F"/>
<path d="M95 800C95 811.046 85.8218 820 74.5 820C63.1782 820 54 811.046 54 800C54 788.954 63.1782 780 74.5 780C85.8218 780 95 788.954 95 800ZM58.3138 800C58.3138 808.721 65.5606 815.791 74.5 815.791C83.4394 815.791 90.6862 808.721 90.6862 800C90.6862 791.279 83.4394 784.209 74.5 784.209C65.5606 784.209 58.3138 791.279 58.3138 800Z" fill="#D21E9F"/>
<path d="M119 559.5C119 570.27 110.046 579 99 579C87.9543 579 79 570.27 79 559.5C79 548.73 87.9543 540 99 540C110.046 540 119 548.73 119 559.5ZM80.4823 559.5C80.4823 569.471 88.773 577.555 99 577.555C109.227 577.555 117.518 569.471 117.518 559.5C117.518 549.529 109.227 541.445 99 541.445C88.773 541.445 80.4823 549.529 80.4823 559.5Z" fill="white"/>
<path d="M124.674 811.684C118.412 838.429 91.099 854.904 63.6681 848.482C36.2372 842.059 19.0763 815.172 25.3382 788.426C31.6001 761.681 58.9135 745.206 86.3444 751.629C113.775 758.051 130.936 784.939 124.674 811.684ZM29.0194 789.288C23.2216 814.051 39.1106 838.946 64.5084 844.892C89.9063 850.839 115.195 835.585 120.993 810.822C126.791 786.059 110.902 761.165 85.5041 755.218C60.1062 749.272 34.8172 764.525 29.0194 789.288Z" fill="white"/>
<path d="M540 0C540 55.7808 494.333 101 438 101C381.667 101 336 55.7808 336 0C336 -55.7808 381.667 -101 438 -101C494.333 -101 540 -55.7808 540 0ZM370.408 0C370.408 36.964 400.67 66.9293 438 66.9293C475.33 66.9293 505.592 36.964 505.592 0C505.592 -36.964 475.33 -66.9293 438 -66.9293C400.67 -66.9293 370.408 -36.964 370.408 0Z" fill="#D9D9D9"/>
<circle cx="218.5" cy="688.5" r="5.5" fill="#D9D9D9"/>
<path d="M102 139C102 194.781 56.333 240 0 240C-56.333 240 -102 194.781 -102 139C-102 83.2192 -56.333 38 0 38C56.333 38 102 83.2192 102 139ZM-89.1103 139C-89.1103 187.732 -49.2143 227.237 0 227.237C49.2143 227.237 89.1103 187.732 89.1103 139C89.1103 90.2682 49.2143 50.7633 0 50.7633C-49.2143 50.7633 -89.1103 90.2682 -89.1103 139Z" fill="#D21E9F"/>
<path d="M540 0C540 55.7808 494.333 101 438 101C381.667 101 336 55.7808 336 0C336 -55.7808 381.667 -101 438 -101C494.333 -101 540 -55.7808 540 0ZM352.382 0C352.382 46.8217 390.715 84.7782 438 84.7782C485.285 84.7782 523.618 46.8217 523.618 0C523.618 -46.8217 485.285 -84.7782 438 -84.7782C390.715 -84.7782 352.382 -46.8217 352.382 0Z" fill="#712AE4"/>
<circle cx="388.5" cy="591.5" r="12.5" fill="#D9D9D9"/>
<path d="M503 769C503 824.781 457.333 870 401 870C344.667 870 299 824.781 299 769C299 713.219 344.667 668 401 668C457.333 668 503 713.219 503 769ZM353.206 769C353.206 795.137 374.604 816.325 401 816.325C427.396 816.325 448.794 795.137 448.794 769C448.794 742.863 427.396 721.675 401 721.675C374.604 721.675 353.206 742.863 353.206 769Z" fill="#712AE4"/>
<path d="M540 -8C540 39.4965 501.049 78 453 78C404.951 78 366 39.4965 366 -8C366 -55.4965 404.951 -94 453 -94C501.049 -94 540 -55.4965 540 -8ZM376.994 -8C376.994 33.4944 411.023 67.1322 453 67.1322C494.977 67.1322 529.006 33.4944 529.006 -8C529.006 -49.4944 494.977 -83.1322 453 -83.1322C411.023 -83.1322 376.994 -49.4944 376.994 -8Z" fill="#D21E9F"/>
</g>
<defs>
<clipPath id="clip0_23_3">
<rect width="438" height="800" fill="white"/>
</clipPath>
</defs>
</svg>
